<?xml version="1.0" standalone="no"?>
<!DOCTYPE svg PUBLIC "-//W3C//DTD SVG 20010904//EN"
 "http://www.w3.org/TR/2001/REC-SVG-20010904/DTD/svg10.dtd">
<svg version="1.0" xmlns="http://www.w3.org/2000/svg"
 width="751.000000pt" height="292.000000pt" viewBox="0 0 751.000000 292.000000"
 preserveAspectRatio="xMidYMid meet">

<g transform="translate(0.000000,292.000000) scale(0.100000,-0.100000)"
fill="#000000" stroke="none">
<path d="M5816 2884 c-246 -44 -483 -172 -677 -364 -53 -52 -110 -113 -127
-135 l-31 -40 -1 82 0 82 -112 3 -113 3 -3 87 -3 87 -106 3 -106 3 2 98 2 97
-1040 0 -1041 0 0 -87 0 -88 -51 -52 c-28 -29 -55 -53 -60 -53 -5 0 -9 57 -9
131 0 72 -4 129 -8 127 -8 -3 -358 -365 -747 -770 -104 -109 -192 -198 -196
-198 -3 0 -79 75 -169 167 -221 227 -673 683 -677 683 -2 0 -3 -58 -3 -130 0
-73 -4 -130 -9 -130 -5 0 -56 50 -112 110 -57 61 -107 110 -112 110 -5 0 -7
-14 -5 -30 3 -17 1 -33 -3 -35 -4 -3 -42 31 -85 75 -42 44 -81 80 -86 80 -4 0
-8 -531 -8 -1180 l0 -1180 90 0 89 0 3 -97 3 -98 115 -5 115 -5 5 -95 5 -95
1059 -3 c774 -1 1062 1 1072 9 11 9 14 73 14 327 l0 315 74 -75 c110 -112 227
-190 391 -260 33 -14 95 -50 138 -81 42 -31 101 -69 130 -86 146 -83 384 -146
531 -138 182 9 384 70 531 162 199 124 354 336 439 598 l32 99 40 -63 c60 -96
156 -210 244 -291 43 -40 104 -104 136 -142 151 -180 399 -315 662 -361 132
-23 474 -20 578 5 119 28 197 56 307 111 134 67 235 137 344 243 100 96 152
158 208 251 32 55 35 66 33 123 l-3 64 -50 21 c-27 11 -51 22 -53 23 -2 1 11
29 28 63 l30 61 -57 26 c-32 14 -80 35 -108 46 -27 12 -54 24 -58 28 -5 4 7
38 26 76 59 119 81 95 -205 229 -139 65 -255 121 -258 123 -3 3 0 6 5 8 6 2
146 81 312 175 l302 171 -69 81 c-38 45 -67 85 -64 89 3 5 22 17 42 28 71 37
72 31 -7 124 -97 114 -259 268 -357 338 -98 70 -223 137 -329 177 -44 16 -110
43 -147 60 -190 87 -467 122 -672 85z m-1386 -144 l0 -50 -877 0 -877 1 -46
-46 c-25 -25 -49 -45 -53 -45 -4 0 -7 43 -7 95 l0 95 930 0 930 0 0 -50z
m1454 16 c-427 -143 -773 -506 -884 -928 l-19 -73 0 190 -1 191 60 92 c69 107
203 250 311 331 171 129 426 228 594 230 34 0 25 -5 -61 -33z m456 -66 c226
-26 417 -107 607 -257 80 -64 280 -259 272 -266 -2 -2 -262 -150 -576 -328
-315 -177 -573 -326 -573 -329 0 -3 273 -124 608 -270 334 -145 613 -266 620
-270 19 -10 -72 -144 -164 -240 -368 -385 -907 -501 -1351 -291 -234 112 -427
300 -551 540 -103 198 -144 363 -146 581 0 118 4 161 21 231 125 495 610 896
1098 908 28 0 88 -4 135 -9z m-4090 -126 l0 -66 -242 -249 c-134 -138 -296
-305 -360 -372 l-116 -122 -38 36 -37 37 384 400 c211 220 390 400 397 401 8
1 12 -18 12 -65z m2009 19 l392 -6 -3 -741 c-4 -721 -4 -743 -25 -817 -49
-174 -128 -311 -245 -425 -97 -94 -151 -134 -254 -184 -246 -120 -548 -124
-798 -11 -138 62 -280 180 -372 308 -56 77 -118 208 -146 310 -22 76 -22 93
-25 826 l-4 747 544 0 c299 0 720 -3 936 -7z m-3959 -1071 l0 -983 -37 3 -38
3 -3 1020 -2 1019 40 -39 40 -39 0 -984z m803 240 c149 -155 276 -281 282
-280 9 3 343 344 805 824 91 94 168 168 173 164 4 -3 6 -481 5 -1061 l-3
-1054 -982 -3 -983 -2 0 1067 1 1068 215 -220 c118 -121 337 -347 487 -503z
m5805 -378 c125 -59 235 -110 244 -115 16 -9 16 -12 -4 -47 -12 -20 -23 -38
-24 -40 -1 -2 -129 52 -284 119 l-281 122 58 34 c32 18 60 33 61 33 2 0 106
-48 230 -106z m-1853 -269 c57 -153 95 -268 90 -273 -6 -6 -87 123 -129 205
l-36 73 1 132 0 133 19 -85 c10 -47 35 -130 55 -185z m-2277 -303 c48 -100 48
-99 30 -84 -9 7 -39 46 -67 87 l-51 73 1 84 0 83 25 -83 c13 -45 41 -117 62
-160z"/>
<path d="M6560 2046 c-195 -105 -364 -196 -374 -202 -19 -11 -18 -13 8 -58 15
-25 29 -46 31 -46 7 0 739 392 749 401 11 10 -34 100 -49 98 -5 -1 -170 -87
-365 -193z"/>
<path d="M6216 1249 c-17 -35 -21 -51 -12 -57 9 -7 155 -73 640 -287 l59 -26
-39 -40 c-143 -148 -341 -238 -533 -242 l-89 -2 -6 -44 c-10 -74 -13 -71 63
-71 275 0 528 128 722 366 34 42 60 76 58 78 -2 1 -192 86 -422 188 l-418 186
-23 -49z"/>
<path d="M4427 1233 c-4 -3 -7 -27 -7 -52 -1 -116 -69 -287 -157 -394 -123
-148 -317 -250 -496 -258 -57 -3 -69 -15 -65 -66 l3 -38 53 -3 c64 -4 199 28
288 68 186 84 352 256 427 442 30 76 57 199 57 263 l0 45 -48 0 c-27 0 -52 -3
-55 -7z"/>
<path d="M736 1282 c-65 -22 -138 -89 -173 -160 -28 -57 -28 -58 -28 -257 0
-110 3 -212 8 -227 11 -39 43 -36 81 8 35 40 51 39 81 -6 26 -40 54 -38 94 5
17 19 36 35 41 35 5 0 24 -16 41 -35 21 -23 41 -35 59 -35 18 0 37 12 57 35
17 19 35 35 41 35 5 0 23 -16 41 -36 69 -75 84 -30 79 226 -5 205 -14 247 -70
314 -81 98 -228 139 -352 98z m-98 -207 c16 -35 15 -60 -3 -75 -36 -30 -62 30
-35 81 14 26 25 24 38 -6z m181 10 c16 -8 31 -22 35 -30 29 -76 -50 -148 -122
-111 -45 23 -56 72 -26 114 28 41 69 50 113 27z m234 6 c61 -24 75 -79 31
-130 -29 -35 -66 -40 -101 -16 -44 31 -38 120 10 143 28 14 31 14 60 3z"/>
<path d="M782 1038 c-15 -15 -15 -41 0 -56 19 -19 36 -14 54 13 13 20 14 28 4
40 -15 18 -42 19 -58 3z"/>
<path d="M1033 1043 c-16 -6 -17 -45 -1 -61 19 -19 36 -14 54 13 25 38 -7 67
-53 48z"/>
<path d="M2145 948 c-3 -7 -6 -96 -7 -197 l-3 -183 -215 1 c-118 0 -221 -3
-228 -8 -9 -5 -12 -24 -10 -52 l3 -44 275 0 275 0 0 245 0 245 -43 3 c-28 2
-44 -1 -47 -10z"/>
</g>
</svg>
